<svg width="30" height="30" viewBox="0 0 30 30" fill="none" xmlns="http://www.w3.org/2000/svg">
<path d="M27.5 10.625H24.4188L19.7938 3.68125C19.6098 3.40543 19.3237 3.21399 18.9986 3.14905C18.6734 3.08412 18.3358 3.15101 18.06 3.335C17.7842 3.51899 17.5927 3.80502 17.5278 4.13016C17.4629 4.45531 17.5298 4.79292 17.7137 5.06875L21.415 10.625H8.585L12.29 5.06875C12.474 4.79292 12.5409 4.45531 12.4759 4.13016C12.411 3.80502 12.2196 3.51899 11.9438 3.335C11.6679 3.15101 11.3303 3.08412 11.0052 3.14905C10.68 3.21399 10.394 3.40543 10.21 3.68125L5.58125 10.625H2.5C2.16848 10.625 1.85054 10.7567 1.61612 10.9911C1.3817 11.2255 1.25 11.5435 1.25 11.875C1.25 12.2065 1.3817 12.5245 1.61612 12.7589C1.85054 12.9933 2.16848 13.125 2.5 13.125H3.75V23.125C3.75 24.1196 4.14509 25.0734 4.84835 25.7766C5.55161 26.4799 6.50544 26.875 7.5 26.875H22.5C23.4946 26.875 24.4484 26.4799 25.1517 25.7766C25.8549 25.0734 26.25 24.1196 26.25 23.125V13.125H27.5C27.8315 13.125 28.1495 12.9933 28.3839 12.7589C28.6183 12.5245 28.75 12.2065 28.75 11.875C28.75 11.5435 28.6183 11.2255 28.3839 10.9911C28.1495 10.7567 27.8315 10.625 27.5 10.625ZM23.75 23.125C23.75 23.4565 23.6183 23.7745 23.3839 24.0089C23.1495 24.2433 22.8315 24.375 22.5 24.375H7.5C7.16848 24.375 6.85054 24.2433 6.61612 24.0089C6.3817 23.7745 6.25 23.4565 6.25 23.125V13.125H23.75V23.125ZM8.75 21.25V16.25C8.75 15.9185 8.8817 15.6005 9.11612 15.3661C9.35054 15.1317 9.66848 15 10 15C10.3315 15 10.6495 15.1317 10.8839 15.3661C11.1183 15.6005 11.25 15.9185 11.25 16.25V21.25C11.25 21.5815 11.1183 21.8995 10.8839 22.1339C10.6495 22.3683 10.3315 22.5 10 22.5C9.66848 22.5 9.35054 22.3683 9.11612 22.1339C8.8817 21.8995 8.75 21.5815 8.75 21.25ZM13.75 21.25V16.25C13.75 15.9185 13.8817 15.6005 14.1161 15.3661C14.3505 15.1317 14.6685 15 15 15C15.3315 15 15.6495 15.1317 15.8839 15.3661C16.1183 15.6005 16.25 15.9185 16.25 16.25V21.25C16.25 21.5815 16.1183 21.8995 15.8839 22.1339C15.6495 22.3683 15.3315 22.5 15 22.5C14.6685 22.5 14.3505 22.3683 14.1161 22.1339C13.8817 21.8995 13.75 21.5815 13.75 21.25ZM18.75 21.25V16.25C18.75 15.9185 18.8817 15.6005 19.1161 15.3661C19.3505 15.1317 19.6685 15 20 15C20.3315 15 20.6495 15.1317 20.8839 15.3661C21.1183 15.6005 21.25 15.9185 21.25 16.25V21.25C21.25 21.5815 21.1183 21.8995 20.8839 22.1339C20.6495 22.3683 20.3315 22.5 20 22.5C19.6685 22.5 19.3505 22.3683 19.1161 22.1339C18.8817 21.8995 18.75 21.5815 18.75 21.25Z" fill="#211F54"/>
</svg>
